<svg width="62" height="62" viewBox="0 0 62 62" fill="none" xmlns="http://www.w3.org/2000/svg">
<path fill-rule="evenodd" clip-rule="evenodd" d="M48.5366 9.06578C49.7487 7.85556 51.7112 7.85556 52.9202 9.06578C54.1323 10.276 54.1323 12.2352 52.9202 13.4424C51.7112 14.6526 49.7487 14.6526 48.5366 13.4424C47.3245 12.2352 47.3245 10.276 48.5366 9.06578ZM13.4634 52.8378C12.2544 54.048 10.2919 54.048 9.07976 52.8378C7.87076 51.6307 7.87076 49.6683 9.07976 48.4612C10.2919 47.251 12.2544 47.251 13.4634 48.4612C14.6755 49.6683 14.6755 51.6307 13.4634 52.8378ZM13.4634 13.4424C12.2544 14.6526 10.2919 14.6526 9.07976 13.4424C7.87076 12.2352 7.87076 10.276 9.07976 9.06578C10.2919 7.85556 12.2544 7.85556 13.4634 9.06578C14.6755 10.276 14.6755 12.2352 13.4634 13.4424ZM52.9202 52.8378C51.7112 54.048 49.7487 54.048 48.5366 52.8378C47.3245 51.6307 47.3245 49.6683 48.5366 48.4612C49.7487 47.251 51.7112 47.251 52.9202 48.4612C54.1323 49.6683 54.1323 51.6307 52.9202 52.8378ZM31 6.19035C29.2888 6.19035 27.9 4.80371 27.9 3.09518C27.9 1.38664 29.2888 -1.42763e-06 31 -1.35295e-06C32.7112 -1.27826e-06 34.1 1.38664 34.1 3.09518C34.1 4.80371 32.7112 6.19035 31 6.19035ZM31 61.9035C29.2888 61.9035 27.9 60.5169 27.9 58.8084C27.9 57.0998 29.2888 55.7132 31 55.7132C32.7112 55.7132 34.1 57.0998 34.1 58.8084C34.1 60.5169 32.7112 61.9035 31 61.9035ZM3.1 34.0469C1.3888 34.0469 -1.42985e-06 32.6603 -1.35505e-06 30.9518C-1.28025e-06 29.2432 1.3888 27.8566 3.1 27.8566C4.8112 27.8566 6.2 29.2432 6.2 30.9518C6.2 32.6603 4.8112 34.0469 3.1 34.0469ZM58.9 27.8566C60.6112 27.8566 62 29.2432 62 30.9518C62 32.6603 60.6112 34.047 58.9 34.047C57.1888 34.047 55.8 32.6603 55.8 30.9518C55.8 29.2432 57.1888 27.8566 58.9 27.8566Z" fill="white"/>
<path fill-rule="evenodd" clip-rule="evenodd" d="M31.0001 52.8118C43.0309 52.8118 52.7839 43.0589 52.7839 31.028C52.7839 18.9972 43.0309 9.24426 31.0001 9.24426C18.9692 9.24426 9.21631 18.9972 9.21631 31.028C9.21631 43.0589 18.9692 52.8118 31.0001 52.8118ZM31 47.7848C40.2545 47.7848 47.7568 40.2826 47.7568 31.0281C47.7568 21.7736 40.2545 14.2713 31 14.2713C21.7455 14.2713 14.2432 21.7736 14.2432 31.0281C14.2432 40.2826 21.7455 47.7848 31 47.7848Z" fill="white"/>
<path d="M42.6111 36.2601L38.8767 39.9025C38.7959 39.9816 38.6981 40.0448 38.5893 40.088C38.4805 40.1312 38.3631 40.1535 38.2444 40.1536H20.5418C20.4574 40.1536 20.3748 40.1312 20.3042 40.0891C20.2335 40.047 20.1779 39.9871 20.1442 39.9167C20.1104 39.8463 20.0999 39.7685 20.114 39.6928C20.1281 39.617 20.1662 39.5467 20.2236 39.4903L23.9538 35.8479C24.0345 35.7688 24.1324 35.7057 24.2411 35.6625C24.3499 35.6193 24.4673 35.5969 24.586 35.5968H42.2886C42.3738 35.5952 42.4576 35.6166 42.5295 35.6582C42.6014 35.6998 42.6583 35.7599 42.6926 35.8308C42.7272 35.9017 42.7377 35.9803 42.7232 36.0567C42.7086 36.1331 42.6697 36.2039 42.6111 36.2601ZM38.8767 28.9236C38.7956 28.8448 38.6977 28.7819 38.589 28.7387C38.4803 28.6956 38.363 28.673 38.2444 28.6724H20.5418C20.4574 28.6725 20.3748 28.6949 20.3042 28.737C20.2335 28.7791 20.1779 28.839 20.1442 28.9094C20.1104 28.9798 20.0999 29.0576 20.114 29.1333C20.1281 29.209 20.1662 29.2794 20.2236 29.3357L23.9538 32.9801C24.0348 33.0588 24.1327 33.1217 24.2414 33.1649C24.3501 33.208 24.4674 33.2306 24.586 33.2312H42.2886C42.3729 33.2308 42.4551 33.208 42.5255 33.1658C42.5959 33.1236 42.6511 33.0637 42.6846 32.9934C42.7181 32.923 42.7285 32.8454 42.7141 32.7698C42.7 32.6943 42.6621 32.6241 42.6047 32.5679L38.8767 28.9236ZM20.5418 26.3068H38.2444C38.3631 26.3067 38.4805 26.2843 38.5893 26.2411C38.6981 26.1979 38.7959 26.1348 38.8767 26.0556L42.6111 22.4133C42.6697 22.357 42.7086 22.2862 42.7232 22.2098C42.7377 22.1334 42.7272 22.0548 42.6926 21.9839C42.6583 21.913 42.6014 21.853 42.5295 21.8114C42.4576 21.7697 42.3738 21.7484 42.2886 21.75H24.586C24.4673 21.7501 24.3499 21.7724 24.2411 21.8156C24.1324 21.8588 24.0345 21.922 23.9538 22.0011L20.2236 25.6435C20.1662 25.6998 20.1281 25.7702 20.114 25.8459C20.0999 25.9216 20.1104 25.9994 20.1442 26.0698C20.1779 26.1402 20.2335 26.2001 20.3042 26.2422C20.3748 26.2843 20.4574 26.3067 20.5418 26.3068Z" fill="white"/>
</svg>
